GIL04_xslow1_ik
nRows=3
nColumns=375

# SIMM Motion File Header:
name GIL04_xslow1_ik
datacolumns 375
datarows 3
otherdata 1
range 0.75000000 0.76667000
endheader
time	pelvis_tx	pelvis_ty	pelvis_tz	pelvis_tilt	pelvis_list	pelvis_rotation	hip_flexion_r	hip_adduction_r	hip_rotation_r	knee_angle_r	ankle_angle_r	hip_flexion_l	hip_adduction_l	hip_rotation_l	knee_angle_l	ankle_angle_l	lumbar_extension	lumbar_bending	lumbar_rotation	subtalar_angle_r	mtp_angle_r	subtalar_angle_l	mtp_angle_l	asis_r_px	asis_r_py	asis_r_pz	asis_l_px	asis_l_py	asis_l_pz	midasis_px	midasis_py	midasis_pz	psis_r_px	psis_r_py	psis_r_pz	psis_l_px	psis_l_py	psis_l_pz	hip_r_px	hip_r_py	hip_r_pz	hip_l_px	hip_l_py	hip_l_pz	midhip_px	midhip_py	midhip_pz	epicondLat_r_px	epicondLat_r_py	epicondLat_r_pz	epicondMed_r_px	epicondMed_r_py	epicondMed_r_pz	thighwand_r_px	thighwand_r_py	thighwand_r_pz	upperleg1_r_px	upperleg1_r_py	upperleg1_r_pz	upperleg2_r_px	upperleg2_r_py	upperleg2_r_pz	malleolusLat_r_px	malleolusLat_r_py	malleolusLat_r_pz	malleolusMedv_r_px	malleolusMedv_r_py	malleolusMedv_r_pz	shankwand_r_px	shankwand_r_py	shankwand_r_pz	lowerleg1_r_px	lowerleg1_r_py	lowerleg1_r_pz	knee_r_px	knee_r_py	knee_r_pz	ankle_r_px	ankle_r_py	ankle_r_pz	toe_r_px	toe_r_py	toe_r_pz	epicondLat_l_px	epicondLat_l_py	epicondLat_l_pz	epicondMed_l_px	epicondMed_l_py	epicondMed_l_pz	thighwand_l_px	thighwand_l_py	thighwand_l_pz	upperleg1_l_px	upperleg1_l_py	upperleg1_l_pz	upperleg2_l_px	upperleg2_l_py	upperleg2_l_pz	malleolusLat_l_px	malleolusLat_l_py	malleolusLat_l_pz	malleolusMedv_l_px	malleolusMedv_l_py	malleolusMedv_l_pz	shankwand_l_px	shankwand_l_py	shankwand_l_pz	lowerleg1_l_px	lowerleg1_l_py	lowerleg1_l_pz	knee_l_px	knee_l_py	knee_l_pz	ankle_l_px	ankle_l_py	ankle_l_pz	toe_l_px	toe_l_py	toe_l_pz	subclavicle_r_px	subclavicle_r_py	subclavicle_r_pz	subclavicle_l_px	subclavicle_l_py	subclavicle_l_pz	neck_px	neck_py	neck_pz	sternalnotch_px	sternalnotch_py	sternalnotch_pz	xyphoidprocess_px	xyphoidprocess_py	xyphoidprocess_pz	midhip_tx	midhip_ty	midhip_tz	hip_r_tx	hip_r_ty	hip_r_tz	hip_l_tx	hip_l_ty	hip_l_tz	knee_r_tx	knee_r_ty	knee_r_tz	knee_l_tx	knee_l_ty	knee_l_tz	ankle_r_tx	ankle_r_ty	ankle_r_tz	ankle_l_tx	ankle_l_ty	ankle_l_tz	midasis_tx	midasis_ty	midasis_tz	asis_r_tx	asis_r_ty	asis_r_tz	asis_l_tx	asis_l_ty	asis_l_tz	psis_r_tx	psis_r_ty	psis_r_tz	psis_l_tx	psis_l_ty	psis_l_tz	epicondLat_r_tx	epicondLat_r_ty	epicondLat_r_tz	epicondLat_l_tx	epicondLat_l_ty	epicondLat_l_tz	epicondMed_r_tx	epicondMed_r_ty	epicondMed_r_tz	epicondMed_l_tx	epicondMed_l_ty	epicondMed_l_tz	malleolusLat_r_tx	malleolusLat_r_ty	malleolusLat_r_tz	malleolusLat_l_tx	malleolusLat_l_ty	malleolusLat_l_tz	malleolusMedv_r_tx	malleolusMedv_r_ty	malleolusMedv_r_tz	malleolusMedv_l_tx	malleolusMedv_l_ty	malleolusMedv_l_tz	neck_tx	neck_ty	neck_tz	subclavicle_r_tx	subclavicle_r_ty	subclavicle_r_tz	subclavicle_l_tx	subclavicle_l_ty	subclavicle_l_tz	sternalnotch_tx	sternalnotch_ty	sternalnotch_tz	xyphoidprocess_tx	xyphoidprocess_ty	xyphoidprocess_tz	thighwand_r_tx	thighwand_r_ty	thighwand_r_tz	thighwand_l_tx	thighwand_l_ty	thighwand_l_tz	upperleg1_r_tx	upperleg1_r_ty	upperleg1_r_tz	upperleg1_l_tx	upperleg1_l_ty	upperleg1_l_tz	upperleg2_r_tx	upperleg2_r_ty	upperleg2_r_tz	upperleg2_l_tx	upperleg2_l_ty	upperleg2_l_tz	shankwand_r_tx	shankwand_r_ty	shankwand_r_tz	shankwand_l_tx	shankwand_l_ty	shankwand_l_tz	lowerleg1_r_tx	lowerleg1_r_ty	lowerleg1_r_tz	lowerleg1_l_tx	lowerleg1_l_ty	lowerleg1_l_tz	toe_r_tx	toe_r_ty	toe_r_tz	toe_l_tx	toe_l_ty	toe_l_tz	ground_force_vx	ground_force_vy	ground_force_vz	ground_force_px	ground_force_py	ground_force_pz	ground_force_vx	ground_force_vy	ground_force_vz	ground_force_px	ground_force_py	ground_force_pz	ground_torque_x	ground_torque_y	ground_torque_z	ground_torque_x	ground_torque_y	ground_torque_z	ground_marker_px	ground_marker_py	ground_marker_pz	ground_marker_px	ground_marker_py	ground_marker_pz	ground_marker_px	ground_marker_py	ground_marker_pz	ground_marker_px	ground_marker_py	ground_marker_pz	ground_marker_px	ground_marker_py	ground_marker_pz	ground_marker_px	ground_marker_py	ground_marker_pz	ground_marker_px	ground_marker_py	ground_marker_pz	ground_marker_px	ground_marker_py	ground_marker_pz	ground_marker_px	ground_marker_py	ground_marker_pz	ground_marker_px	ground_marker_py	ground_marker_pz	ground_marker_px	ground_marker_py	ground_marker_pz	ground_marker_px	ground_marker_py	ground_marker_pz	ground_marker_px	ground_marker_py	ground_marker_pz	ground_marker_px	ground_marker_py	ground_marker_pz	ground_marker_px	ground_marker_py	ground_marker_pz	ground_marker_px	ground_marker_py	ground_marker_pz	ground_marker_px	ground_marker_py	ground_marker_pz	ground_marker_px	ground_marker_py	ground_marker_pz	ground_marker_px	ground_marker_py	ground_marker_pz	ground_marker_px	ground_marker_py	ground_marker_pz	ground_marker_px	ground_marker_py	ground_marker_pz	ground_marker_px	ground_marker_py	ground_marker_pz	ground_marker_px	ground_marker_py	ground_marker_pz	ground_marker_px	ground_marker_py	ground_marker_pz	ground_marker_px	ground_marker_py	ground_marker_pz	ground_marker_px	ground_marker_py	ground_marker_pz	ground_marker_px	ground_marker_py	ground_marker_pz	ground_marker_px	ground_marker_py	ground_marker_pz	ground_marker_px	ground_marker_py	ground_marker_pz	ground_marker_px	ground_marker_py	ground_marker_pz	ground_marker_px	ground_marker_py	ground_marker_pz	ground_marker_px	ground_marker_py	ground_marker_pz	ground_marker_px	ground_marker_py	ground_marker_pz	ground_marker_px	ground_marker_py	ground_marker_pz	ground_marker_px	ground_marker_py	ground_marker_pz	ground_marker_px	ground_marker_py	ground_marker_pz	ground_marker_px	ground_marker_py	ground_marker_pz
      0.75000000	      0.96940729	      0.73759494	     -0.19326329	      6.30053838	     -0.39606807	      2.06013033	    -10.11304397	      7.14622974	      5.41970721	    -11.81215532	     14.45201992	     20.17044962	     -0.50452905	     -7.88125875	    -11.84054272	      4.45422905	    -13.48574235	     -1.05324839	      5.18595019	      0.00000000	      0.00000000	      0.00000000	      0.00000000	      1.07755822	      0.73843002	     -0.11709481	      1.07828940	      0.72813263	     -0.30364148	      0.97955669	      0.73871299	     -0.19363058	      0.93629023	      0.78797531	     -0.19457104	      0.93564396	      0.77995936	     -0.24891390	      0.92557806	      0.68465948	     -0.13017639	      0.92131558	      0.68334178	     -0.25197364	      0.92344682	      0.68400063	     -0.19107501	      0.94468665	      0.33964433	     -0.11459442	      0.93159464	      0.35075827	     -0.21362835	      0.97140596	      0.43526494	     -0.03574924	      1.00959594	      0.49193808	     -0.10444143	      1.00143431	      0.40922082	     -0.12211224	      0.83947234	      0.02977216	     -0.13225442	      0.84030361	      0.04034801	     -0.19142444	      0.85808340	      0.13178222	     -0.05711736	      0.88001578	      0.18391045	     -0.11751321	      0.90034360	      0.36023531	     -0.16632720	      0.81359129	      0.05377058	     -0.19278366	      0.94168034	      0.00863636	     -0.16324267	      1.09796066	      0.39347918	     -0.33398743	      1.12009260	      0.39090999	     -0.23226850	      1.18743335	      0.53535661	     -0.33746070	      1.11648955	      0.56640676	     -0.26847493	      1.13539909	      0.48082873	     -0.26370178	      1.14933525	      0.06870342	     -0.32854958	      1.16181215	      0.07277124	     -0.26623888	      1.21810297	      0.18360059	     -0.34536974	      1.15348736	      0.22753321	     -0.31161243	      1.06508378	      0.38922072	     -0.25639757	      1.14658326	      0.08025624	     -0.24966549	      1.25496048	      0.07449860	     -0.32679912	      0.95020810	      1.12192969	     -0.14142857	      0.94614613	      1.13175830	     -0.25633863	      0.86733196	      1.12701351	     -0.19517267	      0.94934886	      1.11468792	     -0.20255113	      1.03674106	      1.00049463	     -0.21474041	      0.93143700	      0.67952900	     -0.19359200	      0.92743000	      0.68490400	     -0.12637700	      0.92364500	      0.68414400	     -0.25214700	      0.90447300	      0.37793800	     -0.16609000	      1.06706900	      0.39440300	     -0.25309000	      0.81571500	      0.05543600	     -0.17397900	      1.14464200	      0.07832100	     -0.27153000	      0.98163100	      0.75662400	     -0.19138600	      0.98450300	      0.75720100	     -0.09595800	      0.97876000	      0.75604800	     -0.28681400	      0.83333300	      0.77641600	     -0.17096800	      0.83216800	      0.76737100	     -0.22407200	      0.91018200	      0.37108000	     -0.11638400	      1.05948300	      0.39080800	     -0.30238000	      0.90053200	      0.37956500	     -0.21791300	      1.08472300	      0.39407200	     -0.19713700	      0.81490300	      0.05484100	     -0.14049400	      1.13175100	      0.07702300	     -0.30350500	      0.81108600	      0.06870200	     -0.19936500	      1.14254900	      0.08462700	     -0.24259700	      0.87923600	      1.13410700	     -0.19648700	      0.96033000	      1.08304700	     -0.13560800	      0.94876000	      1.08284700	     -0.26548100	      0.94803600	      1.07202800	     -0.20257200	      0.95689500	      0.92822200	     -0.20234600	      0.92640200	      0.45111300	     -0.02965900	      1.13491400	      0.54043500	     -0.30696000	      0.95433400	      0.51717000	     -0.09181000	      1.05520600	      0.56532000	     -0.24230500	      0.96006000	      0.43773300	     -0.11898200	      1.08740600	      0.48365800	     -0.23229800	      0.83963800	      0.15243500	     -0.06221000	      1.19115200	      0.19682700	     -0.32164900	      0.85407200	      0.20820400	     -0.12015700	      1.12652700	      0.23732500	     -0.28632900	      0.90927500	      0.03687900	     -0.18683300	      1.23214900	      0.08838800	     -0.28872500	      2.67534177	    314.59317910	     -4.80749699	      0.90402740	      0.00000000	     -0.18106876	      0.00000000	      0.00000000	      0.00000000	      1.25395557	      0.00000000	     -0.25902707	      0.00000000	      0.98173071	      0.00000000	      0.00000000	      0.00000000	      0.00000000	      0.93143660	      0.67952919	     -0.19359243	      0.92742980	      0.68490410	     -0.12637748	      0.92364550	      0.68414402	     -0.25214717	      0.90447325	      0.37793759	     -0.16609006	      1.06706941	      0.39440271	     -0.25308964	      0.81571543	      0.05543620	     -0.17397870	      1.14464164	      0.07832088	     -0.27153048	      0.98163128	      0.75662446	     -0.19138587	      0.98450267	      0.75720119	     -0.09595759	      0.97875994	      0.75604773	     -0.28681415	      0.83333331	      0.77641577	     -0.17096773	      0.83216774	      0.76737076	     -0.22407241	      0.91018152	      0.37108022	     -0.11638450	      1.05948281	      0.39080760	     -0.30237976	      0.90053153	      0.37956476	     -0.21791281	      1.08472323	      0.39407209	     -0.19713722	      0.81490320	      0.05484069	     -0.14049384	      1.13175082	      0.07702277	     -0.30350542	      0.81108582	      0.06870236	     -0.19936471	      1.14254940	      0.08462660	     -0.24259703	      0.87923646	      1.13410676	     -0.19648744	      0.96033031	      1.08304739	     -0.13560830	      0.94876033	      1.08284688	     -0.26548094	      0.94803572	      1.07202804	     -0.20257236	      0.95689499	      0.92822230	     -0.20234637	      0.92640221	      0.45111343	     -0.02965918	      1.13491392	      0.54043519	     -0.30695978	      0.95433414	      0.51716965	     -0.09180953	      1.05520618	      0.56531966	     -0.24230522	      0.96005970	      0.43773314	     -0.11898196	      1.08740628	      0.48365781	     -0.23229787	      0.83963788	      0.15243451	     -0.06220990	      1.19115174	      0.19682692	     -0.32164896	      0.85407180	      0.20820385	     -0.12015673	      1.12652743	      0.23732540	     -0.28632903	      0.90927476	      0.03687940	     -0.18683265	      1.23214948	      0.08838792	     -0.28872526
      0.75833000	      0.97339248	      0.73661275	     -0.19361382	      6.37944485	     -0.46639595	      2.08457425	    -10.39288611	      7.25019542	      5.55003963	    -12.12225427	     14.93154329	     20.19459655	     -0.36507645	     -7.74382477	    -10.30474778	      4.25024916	    -13.37824233	     -1.00455125	      5.13192306	      0.00000000	      0.00000000	      0.00000000	      0.00000000	      1.08156407	      0.73769292	     -0.11747775	      1.08225575	      0.72716015	     -0.30401143	      0.98354023	      0.73774427	     -0.19398546	      0.94020586	      0.78694587	     -0.19497580	      0.93955497	      0.77886018	     -0.24930828	      0.92965418	      0.68369711	     -0.13044722	      0.92535849	      0.68221920	     -0.25224147	      0.92750633	      0.68295816	     -0.19134434	      0.94765533	      0.33861218	     -0.11509350	      0.93436640	      0.34982277	     -0.21409030	      0.97487772	      0.43410123	     -0.03626098	      1.01309308	      0.49068444	     -0.10501317	      1.00461549	      0.40800422	     -0.12270851	      0.83968465	      0.02943121	     -0.13241900	      0.84042919	      0.03999297	     -0.19159270	      0.85940333	      0.13128476	     -0.05735217	      0.88160376	      0.18321472	     -0.11782085	      0.90330864	      0.35935180	     -0.16671978	      0.81382998	      0.05364590	     -0.19287334	      0.94191914	      0.00845047	     -0.16342654	      1.10277983	      0.39249261	     -0.33305137	      1.12461718	      0.39020416	     -0.23126208	      1.19199980	      0.53452730	     -0.33659684	      1.12079609	      0.56560815	     -0.26789325	      1.13984974	      0.48007685	     -0.26286252	      1.16277029	      0.07047766	     -0.32816450	      1.17505488	      0.07477555	     -0.26583104	      1.22828387	      0.18730409	     -0.34468213	      1.16241365	      0.22932823	     -0.31091981	      1.06941312	      0.38834641	     -0.25550462	      1.15960136	      0.08179519	     -0.24926195	      1.26824979	      0.07883014	     -0.32617161	      0.95300344	      1.12105884	     -0.14193513	      0.94899357	      1.13081987	     -0.25685278	      0.87015053	      1.12584768	     -0.19574210	      0.95221245	      1.11378543	     -0.20305485	      1.03998445	      0.99987122	     -0.21512609	      0.93533600	      0.67861800	     -0.19384300	      0.93141700	      0.68407000	     -0.12659100	      0.92760000	      0.68314900	     -0.25235900	      0.90738700	      0.37729000	     -0.16643400	      1.07152100	      0.39363700	     -0.25215200	      0.81584700	      0.05541800	     -0.17398200	      1.15801700	      0.07947900	     -0.27130300	      0.98550500	      0.75578200	     -0.19170300	      0.98840000	      0.75648000	     -0.09633400	      0.98261100	      0.75508400	     -0.28707100	      0.83718800	      0.77542900	     -0.17153200	      0.83607400	      0.76625000	     -0.22458900	      0.91318800	      0.37038200	     -0.11674600	      1.06409700	      0.38991200	     -0.30145700	      0.90440700	      0.37867300	     -0.21845900	      1.09131900	      0.39348900	     -0.19588600	      0.81504400	      0.05486100	     -0.14049700	      1.14516000	      0.07788800	     -0.30327800	      0.81149300	      0.06877300	     -0.19927400	      1.15559100	      0.08598900	     -0.24245400	      0.88210300	      1.13306600	     -0.19703800	      0.96333300	      1.08210900	     -0.13616700	      0.95177600	      1.08173600	     -0.26600900	      0.95105900	      1.07099700	     -0.20308600	      0.96007300	      0.92719800	     -0.20269800	      0.92986500	      0.45041800	     -0.03007200	      1.13893900	      0.53949400	     -0.30599100	      0.95791500	      0.51637000	     -0.09229700	      1.05831100	      0.56405100	     -0.24150200	      0.96374700	      0.43688500	     -0.11946100	      1.09221000	      0.48295200	     -0.23127500	      0.84067300	      0.15242400	     -0.06228400	      1.20104300	      0.19961400	     -0.32111500	      0.85578000	      0.20809400	     -0.12023600	      1.13546900	      0.23836500	     -0.28586100	      0.90932800	      0.03684900	     -0.18676900	      1.24539000	      0.09172200	     -0.28819700	      2.64510812	    316.84369561	     -4.83910522	      0.90538934	      0.00000000	     -0.18086238	      0.00000000	      0.00000000	      0.00000000	      1.25418494	      0.00000000	     -0.25908752	      0.00000000	      0.96169604	      0.00000000	      0.00000000	      0.00000000	      0.00000000	      0.93533564	      0.67861778	     -0.19384284	      0.93141693	      0.68407011	     -0.12659100	      0.92760003	      0.68314940	     -0.25235862	      0.90738678	      0.37728986	     -0.16643384	      1.07152081	      0.39363742	     -0.25215194	      0.81584692	      0.05541761	     -0.17398241	      1.15801716	      0.07947922	     -0.27130327	      0.98550546	      0.75578213	     -0.19170260	      0.98839980	      0.75648028	     -0.09633373	      0.98261112	      0.75508392	     -0.28707147	      0.83718842	      0.77542907	     -0.17153160	      0.83607411	      0.76625013	     -0.22458924	      0.91318804	      0.37038225	     -0.11674601	      1.06409693	      0.38991168	     -0.30145720	      0.90440726	      0.37867332	     -0.21845867	      1.09131932	      0.39348862	     -0.19588576	      0.81504411	      0.05486061	     -0.14049666	      1.14515996	      0.07788850	     -0.30327842	      0.81149316	      0.06877313	     -0.19927430	      1.15559065	      0.08598918	     -0.24245378	      0.88210332	      1.13306630	     -0.19703832	      0.96333265	      1.08210933	     -0.13616678	      0.95177567	      1.08173573	     -0.26600865	      0.95105875	      1.07099700	     -0.20308611	      0.96007347	      0.92719823	     -0.20269790	      0.92986548	      0.45041782	     -0.03007204	      1.13893926	      0.53949386	     -0.30599052	      0.95791519	      0.51636970	     -0.09229679	      1.05831122	      0.56405067	     -0.24150176	      0.96374673	      0.43688515	     -0.11946090	      1.09220970	      0.48295209	     -0.23127547	      0.84067303	      0.15242435	     -0.06228357	      1.20104277	      0.19961378	     -0.32111490	      0.85578018	      0.20809366	     -0.12023602	      1.13546860	      0.23836502	     -0.28586110	      0.90932751	      0.03684908	     -0.18676874	      1.24539042	      0.09172164	     -0.28819710
      0.76667000	      0.97742530	      0.73561952	     -0.19397147	      6.43819242	     -0.53917922	      2.09933215	    -10.66128507	      7.34944544	      5.71734751	    -12.42516293	     15.39550781	     20.22972871	     -0.23881695	     -7.56442198	     -8.88371795	      4.03009901	    -13.24812657	     -0.95844779	      5.04165054	      0.00000000	      0.00000000	      0.00000000	      0.00000000	      1.08560436	      0.73690865	     -0.11784928	      1.08628565	      0.72613576	     -0.30436928	      0.98757184	      0.73676094	     -0.19434574	      0.94418704	      0.78591687	     -0.19539462	      0.94353825	      0.77776037	     -0.24971654	      0.93374833	      0.68274076	     -0.13073159	      0.92944033	      0.68110121	     -0.25252333	      0.93159433	      0.68192099	     -0.19162746	      0.95062222	      0.33758922	     -0.11559654	      0.93709209	      0.34889388	     -0.21454997	      0.97839065	      0.43294634	     -0.03679477	      1.01660355	      0.48943374	     -0.10562706	      1.00779569	      0.40679152	     -0.12333861	      0.83991055	      0.02912257	     -0.13251751	      0.84054110	      0.03966880	     -0.19169531	      0.86076389	      0.13081390	     -0.05753743	      0.88320060	      0.18254211	     -0.11809175	      0.90624974	      0.35847883	     -0.16709672	      0.81405598	      0.05354975	     -0.19288635	      0.94215088	      0.00826670	     -0.16359955	      1.10764448	      0.39152741	     -0.33214973	      1.12911236	      0.38946251	     -0.23027711	      1.19663748	      0.53370605	     -0.33562967	      1.12513013	      0.56479234	     -0.26724463	      1.14430926	      0.47930275	     -0.26198681	      1.17553934	      0.07229146	     -0.32779323	      1.18758526	      0.07677998	     -0.26542663	      1.23801058	      0.19082326	     -0.34394359	      1.17099888	      0.23104254	     -0.31022936	      1.07376715	      0.38746226	     -0.25468129	      1.17192118	      0.08335930	     -0.24887458	      1.28083763	      0.08293945	     -0.32546047	      0.95580217	      1.12021121	     -0.14246094	      0.95193440	      1.12989011	     -0.25739041	      0.87301561	      1.12469279	     -0.19639635	      0.95512812	      1.11289864	     -0.20357739	      1.04329590	      0.99926923	     -0.21544681	      0.93928200	      0.67769500	     -0.19411300	      0.93541100	      0.68323400	     -0.12682800	      0.93157800	      0.68214900	     -0.25259400	      0.91026700	      0.37662600	     -0.16675800	      1.07594600	      0.39284900	     -0.25131000	      0.81596100	      0.05543000	     -0.17398100	      1.17069400	      0.08071600	     -0.27098600	      0.98942000	      0.75491600	     -0.19203800	      0.99232500	      0.75573800	     -0.09672300	      0.98651500	      0.75409400	     -0.28735300	      0.84111600	      0.77446000	     -0.17210600	      0.84002000	      0.76516500	     -0.22514500	      0.91618600	      0.36967300	     -0.11709000	      1.06871600	      0.38902200	     -0.30063600	      0.90806400	      0.37786200	     -0.21898800	      1.09609500	      0.39253700	     -0.19536700	      0.81518200	      0.05490500	     -0.14049500	      1.15785400	      0.07883400	     -0.30295300	      0.81173900	      0.06884800	     -0.19944600	      1.16814200	      0.08742800	     -0.24226700	      0.88500300	      1.13197400	     -0.19765200	      0.96638800	      1.08118300	     -0.13673100	      0.95485000	      1.08061300	     -0.26655400	      0.95409600	      1.06997100	     -0.20362900	      0.96339900	      0.92617600	     -0.20304100	      0.93337300	      0.44970800	     -0.03045900	      1.14303200	      0.53862000	     -0.30502000	      0.96154000	      0.51555900	     -0.09279800	      1.06176500	      0.56284700	     -0.24079600	      0.96738300	      0.43605600	     -0.11997600	      1.09630600	      0.48210300	     -0.23060300	      0.84173400	      0.15241000	     -0.06236600	      1.21040700	      0.20222600	     -0.32061600	      0.85761900	      0.20768900	     -0.12068100	      1.14374500	      0.23916400	     -0.28521300	      0.90938600	      0.03682200	     -0.18670600	      1.25790100	      0.09492900	     -0.28766100	      2.65684672	    319.02598016	     -4.96277531	      0.90677661	      0.00000000	     -0.18069586	      0.00000000	      0.00000000	      0.00000000	      1.25441748	      0.00000000	     -0.25910052	      0.00000000	      0.93525330	      0.00000000	      0.00000000	      0.00000000	      0.00000000	      0.93928206	      0.67769462	     -0.19411336	      0.93541110	      0.68323362	     -0.12682796	      0.93157762	      0.68214935	     -0.25259376	      0.91026717	      0.37662649	     -0.16675778	      1.07594609	      0.39284876	     -0.25131011	      0.81596053	      0.05542961	     -0.17398143	      1.17069352	      0.08071616	     -0.27098644	      0.98942000	      0.75491595	     -0.19203819	      0.99232531	      0.75573766	     -0.09672335	      0.98651469	      0.75409424	     -0.28735304	      0.84111613	      0.77445960	     -0.17210571	      0.84001958	      0.76516539	     -0.22514518	      0.91618621	      0.36967283	     -0.11709028	      1.06871629	      0.38902208	     -0.30063644	      0.90806413	      0.37786177	     -0.21898758	      1.09609509	      0.39253691	     -0.19536655	      0.81518155	      0.05490520	     -0.14049460	      1.15785384	      0.07883383	     -0.30295289	      0.81173915	      0.06884770	     -0.19944589	      1.16814244	      0.08742781	     -0.24226671	      0.88500291	      1.13197434	     -0.19765249	      0.96638757	      1.08118272	     -0.13673103	      0.95485032	      1.08061290	     -0.26655361	      0.95409638	      1.06997073	     -0.20362857	      0.96339858	      0.92617595	     -0.20304145	      0.93337297	      0.44970775	     -0.03045856	      1.14303219	      0.53862029	     -0.30501980	      0.96154040	      0.51555866	     -0.09279823	      1.06176460	      0.56284684	     -0.24079597	      0.96738255	      0.43605626	     -0.11997627	      1.09630620	      0.48210302	     -0.23060332	      0.84173417	      0.15241034	     -0.06236621	      1.21040690	      0.20222586	     -0.32061583	      0.85761946	      0.20768881	     -0.12068096	      1.14374506	      0.23916373	     -0.28521311	      0.90938586	      0.03682233	     -0.18670607	      1.25790071	      0.09492876	     -0.28766105
